<?xml version="1.0" standalone="no"?>
<!DOCTYPE svg PUBLIC "-//W3C//DTD SVG 20010904//EN"
 "http://www.w3.org/TR/2001/REC-SVG-20010904/DTD/svg10.dtd">
<svg version="1.0" xmlns="http://www.w3.org/2000/svg"
 width="256.000000pt" height="256.000000pt" viewBox="0 0 256.000000 256.000000"
 preserveAspectRatio="xMidYMid meet">
<metadata>
Created by potrace 1.14, written by Peter Selinger 2001-2017
</metadata>
<g transform="translate(0.000000,256.000000) scale(0.100000,-0.100000)"
fill="#000000" stroke="none">
<path d="M1025 2138 c-28 -18 -63 -54 -80 -80 -16 -26 -36 -48 -44 -48 -14 0
-76 26 -131 55 -34 18 -165 38 -196 31 -37 -10 -64 -75 -64 -156 l0 -65 -47
-13 c-27 -6 -97 -21 -158 -32 -263 -47 -351 -171 -167 -234 l35 -12 -39 -24
c-141 -86 -153 -212 -26 -270 65 -30 116 -54 122 -58 6 -4 -49 -48 -93 -74
-20 -12 -52 -44 -69 -71 l-31 -49 17 -55 c15 -47 22 -57 54 -69 20 -8 51 -21
67 -29 17 -8 47 -17 67 -20 21 -3 39 -9 42 -13 2 -4 -1 -26 -7 -49 -15 -58 11
-140 57 -181 37 -32 102 -47 160 -37 30 6 36 4 52 -22 41 -65 88 -113 128
-132 54 -27 139 -28 198 -2 37 16 47 26 62 64 18 47 15 78 -11 130 -13 26 -12
28 22 48 19 12 35 26 35 31 0 6 11 -1 25 -16 29 -31 82 -56 122 -56 15 0 46
-12 68 -25 42 -26 78 -31 118 -16 22 9 26 7 31 -15 12 -47 119 -127 222 -165
48 -18 72 -21 158 -17 56 3 111 10 122 16 29 16 68 114 61 155 -3 17 -8 40
-12 49 -6 16 0 18 52 18 55 0 163 32 197 58 6 5 36 17 66 27 78 24 186 78 250
125 58 42 85 87 76 126 -8 30 -100 103 -138 111 -16 3 -37 17 -46 32 -9 14
-33 45 -53 68 -32 37 -37 52 -43 112 -9 94 -39 150 -93 176 l-42 20 -1 71 c0
39 -6 90 -14 115 -7 24 -26 85 -41 134 -33 104 -68 179 -94 197 -10 7 -23 23
-30 35 -25 47 -100 35 -117 -19 -4 -13 -13 -33 -21 -44 l-14 -22 -49 32 c-27
17 -52 38 -55 48 -8 22 -113 108 -134 108 -25 0 -70 -34 -94 -70 -12 -18 -29
-44 -38 -57 l-16 -23 -39 30 c-21 16 -46 36 -54 43 -8 8 -46 33 -83 57 -93 58
-136 62 -202 18z"/>
</g>
</svg>
